REM DIRINDEX 1\2,1\4,1\5,1\6,1\7,1\3\8,1\3\9,1\3\10
REM DIRNAME folder01,folder02,folder03,folder04,folder05,folder06,folder07,folder08,folder09,folder10
TITLE ""
FILE "DB4500_5th_4B_27.mp3" MP3
  TRACK 01 AUDIO
    TITLE "8:cjc113_2773"
    INDEX 01 00:00:00
  TRACK 02 AUDIO
    TITLE "0:"
    INDEX 01 00:01:26
  TRACK 03 AUDIO
    TITLE "9:cjc113_2774"
    INDEX 01 00:01:48
  TRACK 04 AUDIO
    TITLE "0:"
    INDEX 01 00:02:55
  TRACK 05 AUDIO
    TITLE "10:cjc113_2775"
    INDEX 01 00:03:02
  TRACK 06 AUDIO
    TITLE "0:"
    INDEX 01 00:06:39
  TRACK 07 AUDIO
    TITLE "8:cjc113_2776"
    INDEX 01 00:07:09
  TRACK 08 AUDIO
    TITLE "0:"
    INDEX 01 00:08:21
  TRACK 09 AUDIO
    TITLE "9:cjc113_2777"
    INDEX 01 00:08:46
  TRACK 10 AUDIO
    TITLE "0:"
    INDEX 01 00:09:55
  TRACK 11 AUDIO
    TITLE "10:cjc113_2778"
    INDEX 01 00:10:02
  TRACK 12 AUDIO
    TITLE "0:"
    INDEX 01 00:13:63
  TRACK 13 AUDIO
    TITLE "8:cjc113_2779"
    INDEX 01 00:14:35
  TRACK 14 AUDIO
    TITLE "0:"
    INDEX 01 00:15:56
  TRACK 15 AUDIO
    TITLE "9:cjc113_2780"
    INDEX 01 00:16:02
  TRACK 16 AUDIO
    TITLE "0:"
    INDEX 01 00:17:69
  TRACK 17 AUDIO
    TITLE "10:cjc113_2781"
    INDEX 01 00:18:15
  TRACK 18 AUDIO
    TITLE "0:"
    INDEX 01 00:21:70
  TRACK 19 AUDIO
    TITLE "8:cjc113_2782"
    INDEX 01 00:22:42
  TRACK 20 AUDIO
    TITLE "0:"
    INDEX 01 00:23:63
  TRACK 21 AUDIO
    TITLE "9:cjc113_2783"
    INDEX 01 00:24:10
  TRACK 22 AUDIO
    TITLE "0:"
    INDEX 01 00:25:41
  TRACK 23 AUDIO
    TITLE "10:cjc113_2784"
    INDEX 01 00:25:62
  TRACK 24 AUDIO
    TITLE "0:"
    INDEX 01 00:28:55
  TRACK 25 AUDIO
    TITLE "8:cjc113_2785"
    INDEX 01 00:29:29
  TRACK 26 AUDIO
    TITLE "0:"
    INDEX 01 00:30:54
  TRACK 27 AUDIO
    TITLE "9:cjc113_2786"
    INDEX 01 00:31:00
  TRACK 28 AUDIO
    TITLE "0:"
    INDEX 01 00:32:35
  TRACK 29 AUDIO
    TITLE "10:cjc113_2787"
    INDEX 01 00:32:58
  TRACK 30 AUDIO
    TITLE "0:"
    INDEX 01 00:36:07
  TRACK 31 AUDIO
    TITLE "8:cjc113_2788"
    INDEX 01 00:36:54
  TRACK 32 AUDIO
    TITLE "0:"
    INDEX 01 00:37:63
  TRACK 33 AUDIO
    TITLE "9:cjc113_2789"
    INDEX 01 00:38:06
  TRACK 34 AUDIO
    TITLE "0:"
    INDEX 01 00:39:29
  TRACK 35 AUDIO
    TITLE "10:cjc113_2790"
    INDEX 01 00:39:51
  TRACK 36 AUDIO
    TITLE "0:"
    INDEX 01 00:42:27
  TRACK 37 AUDIO
    TITLE "8:cjc113_2791"
    INDEX 01 00:42:74
  TRACK 38 AUDIO
    TITLE "0:"
    INDEX 01 00:44:09
  TRACK 39 AUDIO
    TITLE "9:cjc113_2792"
    INDEX 01 00:44:32
  TRACK 40 AUDIO
    TITLE "0:"
    INDEX 01 00:45:59
  TRACK 41 AUDIO
    TITLE "10:cjc113_2793"
    INDEX 01 00:46:06
  TRACK 42 AUDIO
    TITLE "0:"
    INDEX 01 00:49:61
  TRACK 43 AUDIO
    TITLE "8:cjc113_2794"
    INDEX 01 00:50:33
  TRACK 44 AUDIO
    TITLE "0:"
    INDEX 01 00:51:36
  TRACK 45 AUDIO
    TITLE "9:cjc113_2795"
    INDEX 01 00:51:58
  TRACK 46 AUDIO
    TITLE "0:"
    INDEX 01 00:53:02
  TRACK 47 AUDIO
    TITLE "10:cjc113_2796"
    INDEX 01 00:53:25
  TRACK 48 AUDIO
    TITLE "0:"
    INDEX 01 00:55:36
  TRACK 49 AUDIO
    TITLE "8:cjc113_2797"
    INDEX 01 00:56:10
  TRACK 50 AUDIO
    TITLE "0:"
    INDEX 01 00:57:15
  TRACK 51 AUDIO
    TITLE "9:cjc113_2798"
    INDEX 01 00:57:39
  TRACK 52 AUDIO
    TITLE "0:"
    INDEX 01 00:58:60
  TRACK 53 AUDIO
    TITLE "10:cjc113_2799"
    INDEX 01 00:59:10
  TRACK 54 AUDIO
    TITLE "0:"
    INDEX 01 01:02:50
  TRACK 55 AUDIO
    TITLE "8:cjc113_2800"
    INDEX 01 01:03:26
  TRACK 56 AUDIO
    TITLE "0:"
    INDEX 01 01:04:48
  TRACK 57 AUDIO
    TITLE "9:cjc113_2801"
    INDEX 01 01:04:70
  TRACK 58 AUDIO
    TITLE "0:"
    INDEX 01 01:06:32
  TRACK 59 AUDIO
    TITLE "10:cjc113_2802"
    INDEX 01 01:06:53
  TRACK 60 AUDIO
    TITLE "0:"
    INDEX 01 01:09:16
  TRACK 61 AUDIO
    TITLE "8:cjc113_2803"
    INDEX 01 01:09:63
  TRACK 62 AUDIO
    TITLE "0:"
    INDEX 01 01:11:25
  TRACK 63 AUDIO
    TITLE "9:cjc113_2804"
    INDEX 01 01:11:47
  TRACK 64 AUDIO
    TITLE "0:"
    INDEX 01 01:13:08
  TRACK 65 AUDIO
    TITLE "10:cjc113_2805"
    INDEX 01 01:13:32
  TRACK 66 AUDIO
    TITLE "0:"
    INDEX 01 01:16:71
